<mxfile host="app.diagrams.net" modified="2023-10-20T10:36:16.237Z" agent="Mozilla/5.0 (Windows NT 10.0; Win64; x64) AppleWebKit/537.36 (KHTML, like Gecko) Chrome/118.0.0.0 Safari/537.36" etag="7tuatRFxlROwVvYuiXId" version="22.0.5" type="device">
  <diagram name="Page-1" id="TUuK_z1TODneTFZ7jnLf">
    <mxGraphModel dx="1219" dy="612" grid="1" gridSize="10" guides="1" tooltips="1" connect="1" arrows="1" fold="1" page="1" pageScale="1" pageWidth="850" pageHeight="1100" math="0" shadow="0">
      <root>
        <mxCell id="0" />
        <mxCell id="1" parent="0" />
        <mxCell id="OzavWiV9OdfGLWeC7wIS-1" value="" style="swimlane;html=1;childLayout=stackLayout;startSize=0;rounded=0;shadow=0;comic=0;labelBackgroundColor=none;strokeWidth=1;fontFamily=Verdana;fontSize=12;align=center;" parent="1" vertex="1">
          <mxGeometry x="40" y="21" width="500" height="640" as="geometry">
            <mxRectangle x="40" y="20" width="70" height="30" as="alternateBounds" />
          </mxGeometry>
        </mxCell>
        <mxCell id="OzavWiV9OdfGLWeC7wIS-2" value="&lt;font style=&quot;font-size: 14px;&quot;&gt;User&lt;/font&gt;" style="swimlane;html=1;startSize=20;" parent="OzavWiV9OdfGLWeC7wIS-1" vertex="1">
          <mxGeometry width="250" height="640" as="geometry">
            <mxRectangle y="20" width="40" height="970" as="alternateBounds" />
          </mxGeometry>
        </mxCell>
        <mxCell id="OzavWiV9OdfGLWeC7wIS-3" value="" style="ellipse;whiteSpace=wrap;html=1;rounded=0;shadow=0;comic=0;labelBackgroundColor=none;strokeWidth=1;fillColor=#000000;fontFamily=Verdana;fontSize=12;align=center;" parent="OzavWiV9OdfGLWeC7wIS-2" vertex="1">
          <mxGeometry x="105" y="40" width="40" height="40" as="geometry" />
        </mxCell>
        <mxCell id="OzavWiV9OdfGLWeC7wIS-5" value="&lt;font style=&quot;font-size: 14px;&quot;&gt;User Registration&lt;/font&gt;" style="rounded=1;whiteSpace=wrap;html=1;" parent="OzavWiV9OdfGLWeC7wIS-2" vertex="1">
          <mxGeometry x="80" y="130" width="90" height="40" as="geometry" />
        </mxCell>
        <mxCell id="OzavWiV9OdfGLWeC7wIS-6" value="" style="endArrow=classic;html=1;rounded=0;exitX=0.5;exitY=1;exitDx=0;exitDy=0;entryX=0.5;entryY=0;entryDx=0;entryDy=0;" parent="OzavWiV9OdfGLWeC7wIS-2" source="OzavWiV9OdfGLWeC7wIS-3" target="OzavWiV9OdfGLWeC7wIS-5" edge="1">
          <mxGeometry width="50" height="50" relative="1" as="geometry">
            <mxPoint x="360" y="300" as="sourcePoint" />
            <mxPoint x="410" y="250" as="targetPoint" />
          </mxGeometry>
        </mxCell>
        <mxCell id="OzavWiV9OdfGLWeC7wIS-7" value="&lt;span style=&quot;font-size: 14px;&quot;&gt;Enter OTP&lt;/span&gt;" style="rounded=1;whiteSpace=wrap;html=1;" parent="OzavWiV9OdfGLWeC7wIS-2" vertex="1">
          <mxGeometry x="80" y="328" width="90" height="40" as="geometry" />
        </mxCell>
        <mxCell id="OzavWiV9OdfGLWeC7wIS-4" value="" style="ellipse;html=1;shape=endState;fillColor=#000000;strokeColor=#0F0000;" parent="OzavWiV9OdfGLWeC7wIS-2" vertex="1">
          <mxGeometry x="115" y="593" width="40" height="40" as="geometry" />
        </mxCell>
        <mxCell id="OzavWiV9OdfGLWeC7wIS-10" value="&lt;font style=&quot;font-size: 14px;&quot;&gt;System&lt;/font&gt;" style="swimlane;html=1;startSize=20;" parent="OzavWiV9OdfGLWeC7wIS-1" vertex="1">
          <mxGeometry x="250" width="250" height="640" as="geometry" />
        </mxCell>
        <mxCell id="OzavWiV9OdfGLWeC7wIS-12" value="&lt;font style=&quot;font-size: 14px;&quot;&gt;if correct&lt;/font&gt;" style="rhombus;whiteSpace=wrap;html=1;" parent="OzavWiV9OdfGLWeC7wIS-10" vertex="1">
          <mxGeometry x="87" y="209" width="75" height="60" as="geometry" />
        </mxCell>
        <mxCell id="dHQx1IV8ueyIYqK32sHI-1" value="&lt;font style=&quot;font-size: 14px;&quot;&gt;Check user credentials&lt;/font&gt;" style="rounded=1;whiteSpace=wrap;html=1;" vertex="1" parent="OzavWiV9OdfGLWeC7wIS-10">
          <mxGeometry x="80" y="130" width="90" height="40" as="geometry" />
        </mxCell>
        <mxCell id="dHQx1IV8ueyIYqK32sHI-2" value="" style="endArrow=classic;html=1;rounded=0;exitX=0.5;exitY=1;exitDx=0;exitDy=0;entryX=0.5;entryY=0;entryDx=0;entryDy=0;" edge="1" parent="OzavWiV9OdfGLWeC7wIS-10" source="dHQx1IV8ueyIYqK32sHI-1" target="OzavWiV9OdfGLWeC7wIS-12">
          <mxGeometry x="-0.5" y="10" width="50" height="50" relative="1" as="geometry">
            <mxPoint x="-70" y="160" as="sourcePoint" />
            <mxPoint x="90" y="160" as="targetPoint" />
            <mxPoint as="offset" />
          </mxGeometry>
        </mxCell>
        <mxCell id="dHQx1IV8ueyIYqK32sHI-5" value="&lt;font style=&quot;font-size: 14px;&quot;&gt;Check user entered otp&lt;/font&gt;" style="rounded=1;whiteSpace=wrap;html=1;" vertex="1" parent="OzavWiV9OdfGLWeC7wIS-10">
          <mxGeometry x="80" y="328" width="90" height="40" as="geometry" />
        </mxCell>
        <mxCell id="OzavWiV9OdfGLWeC7wIS-15" value="" style="endArrow=classic;html=1;rounded=0;exitX=1;exitY=0.5;exitDx=0;exitDy=0;entryX=0;entryY=0.5;entryDx=0;entryDy=0;" parent="OzavWiV9OdfGLWeC7wIS-1" source="OzavWiV9OdfGLWeC7wIS-5" target="dHQx1IV8ueyIYqK32sHI-1" edge="1">
          <mxGeometry x="-0.5" y="10" width="50" height="50" relative="1" as="geometry">
            <mxPoint x="135" y="110" as="sourcePoint" />
            <mxPoint x="340" y="159" as="targetPoint" />
            <mxPoint as="offset" />
          </mxGeometry>
        </mxCell>
        <mxCell id="dHQx1IV8ueyIYqK32sHI-6" value="yes&amp;nbsp;" style="endArrow=classic;html=1;rounded=0;exitX=0.5;exitY=1;exitDx=0;exitDy=0;entryX=0.5;entryY=0;entryDx=0;entryDy=0;" edge="1" parent="OzavWiV9OdfGLWeC7wIS-1" source="OzavWiV9OdfGLWeC7wIS-12" target="OzavWiV9OdfGLWeC7wIS-7">
          <mxGeometry x="-0.5517" y="-10" width="50" height="50" relative="1" as="geometry">
            <mxPoint x="180" y="160" as="sourcePoint" />
            <mxPoint x="340" y="160" as="targetPoint" />
            <mxPoint as="offset" />
            <Array as="points">
              <mxPoint x="375" y="289" />
              <mxPoint x="125" y="289" />
            </Array>
          </mxGeometry>
        </mxCell>
        <mxCell id="dHQx1IV8ueyIYqK32sHI-8" value="" style="endArrow=classic;html=1;rounded=0;exitX=1;exitY=0.5;exitDx=0;exitDy=0;entryX=0;entryY=0.5;entryDx=0;entryDy=0;" edge="1" parent="OzavWiV9OdfGLWeC7wIS-1" source="OzavWiV9OdfGLWeC7wIS-7" target="dHQx1IV8ueyIYqK32sHI-5">
          <mxGeometry width="50" height="50" relative="1" as="geometry">
            <mxPoint x="135" y="90" as="sourcePoint" />
            <mxPoint x="135" y="140" as="targetPoint" />
          </mxGeometry>
        </mxCell>
        <mxCell id="dHQx1IV8ueyIYqK32sHI-7" value="no" style="endArrow=classic;html=1;rounded=0;exitX=1;exitY=0.5;exitDx=0;exitDy=0;" edge="1" parent="1" source="OzavWiV9OdfGLWeC7wIS-12">
          <mxGeometry x="-0.9381" y="10" width="50" height="50" relative="1" as="geometry">
            <mxPoint x="220" y="181" as="sourcePoint" />
            <mxPoint x="170" y="120" as="targetPoint" />
            <mxPoint as="offset" />
            <Array as="points">
              <mxPoint x="480" y="260" />
              <mxPoint x="480" y="120" />
            </Array>
          </mxGeometry>
        </mxCell>
        <mxCell id="dHQx1IV8ueyIYqK32sHI-9" value="&lt;span style=&quot;font-size: 14px;&quot;&gt;User successfully registered&lt;/span&gt;" style="rounded=1;whiteSpace=wrap;html=1;" vertex="1" parent="1">
          <mxGeometry x="130" y="527" width="90" height="51" as="geometry" />
        </mxCell>
        <mxCell id="dHQx1IV8ueyIYqK32sHI-10" value="&lt;font style=&quot;font-size: 14px;&quot;&gt;if correct&lt;/font&gt;" style="rhombus;whiteSpace=wrap;html=1;" vertex="1" parent="1">
          <mxGeometry x="378" y="430" width="75" height="60" as="geometry" />
        </mxCell>
        <mxCell id="dHQx1IV8ueyIYqK32sHI-11" value="" style="endArrow=classic;html=1;rounded=0;entryX=0.5;entryY=0;entryDx=0;entryDy=0;" edge="1" parent="1" target="dHQx1IV8ueyIYqK32sHI-10" source="dHQx1IV8ueyIYqK32sHI-5">
          <mxGeometry x="-0.5" y="10" width="50" height="50" relative="1" as="geometry">
            <mxPoint x="425" y="370" as="sourcePoint" />
            <mxPoint x="390" y="360" as="targetPoint" />
            <mxPoint as="offset" />
          </mxGeometry>
        </mxCell>
        <mxCell id="dHQx1IV8ueyIYqK32sHI-13" value="yes" style="endArrow=classic;html=1;rounded=0;exitX=0.5;exitY=1;exitDx=0;exitDy=0;entryX=0.5;entryY=0;entryDx=0;entryDy=0;" edge="1" parent="1" source="dHQx1IV8ueyIYqK32sHI-10" target="dHQx1IV8ueyIYqK32sHI-9">
          <mxGeometry x="-0.5517" y="-10" width="50" height="50" relative="1" as="geometry">
            <mxPoint x="230" y="360" as="sourcePoint" />
            <mxPoint x="390" y="360" as="targetPoint" />
            <mxPoint as="offset" />
            <Array as="points">
              <mxPoint x="416" y="510" />
              <mxPoint x="175" y="510" />
            </Array>
          </mxGeometry>
        </mxCell>
        <mxCell id="8qBxuZVfWUz4ZcnqxZRa-7" value="" style="endArrow=classic;html=1;rounded=0;exitX=0.5;exitY=1;exitDx=0;exitDy=0;entryX=0.5;entryY=0;entryDx=0;entryDy=0;" parent="1" source="dHQx1IV8ueyIYqK32sHI-9" target="OzavWiV9OdfGLWeC7wIS-4" edge="1">
          <mxGeometry width="50" height="50" relative="1" as="geometry">
            <mxPoint x="690" y="502" as="sourcePoint" />
            <mxPoint x="690" y="540" as="targetPoint" />
          </mxGeometry>
        </mxCell>
        <mxCell id="dHQx1IV8ueyIYqK32sHI-15" value="no" style="endArrow=classic;html=1;rounded=0;exitX=1;exitY=0.5;exitDx=0;exitDy=0;" edge="1" parent="1" source="dHQx1IV8ueyIYqK32sHI-10">
          <mxGeometry x="-0.9405" y="9" width="50" height="50" relative="1" as="geometry">
            <mxPoint x="175" y="111" as="sourcePoint" />
            <mxPoint x="170" y="330" as="targetPoint" />
            <Array as="points">
              <mxPoint x="480" y="460" />
              <mxPoint x="480" y="330" />
            </Array>
            <mxPoint x="-1" as="offset" />
          </mxGeometry>
        </mxCell>
      </root>
    </mxGraphModel>
  </diagram>
</mxfile>
